<?xml version="1.0" standalone="no"?>
<!DOCTYPE svg PUBLIC "-//W3C//DTD SVG 20010904//EN"
 "http://www.w3.org/TR/2001/REC-SVG-20010904/DTD/svg10.dtd">
<svg version="1.0" xmlns="http://www.w3.org/2000/svg"
 width="225.000000pt" height="225.000000pt" viewBox="0 0 225.000000 225.000000"
 preserveAspectRatio="xMidYMid meet">

<g transform="translate(0.000000,225.000000) scale(0.100000,-0.100000)"
fill="#000000" stroke="none">
<path d="M480 1870 c-48 -9 -74 -23 -152 -87 -53 -43 -75 -69 -100 -121 l-33
-67 1 -175 c0 -134 6 -202 22 -290 42 -225 110 -418 186 -524 53 -74 161 -175
222 -208 39 -20 45 -21 110 -9 38 7 94 11 124 7 30 -3 128 -8 217 -12 156 -6
165 -6 246 19 174 55 329 206 413 403 24 57 32 66 91 100 88 52 160 126 197
204 28 60 31 73 30 165 0 122 -24 190 -90 264 -62 69 -132 101 -231 108 -188
12 -356 -64 -420 -191 -27 -53 -36 -133 -21 -187 l8 -27 -108 -4 c-89 -3 -117
-8 -162 -29 -103 -48 -159 -114 -206 -243 l-22 -61 -29 65 c-35 77 -111 180
-160 217 -51 39 -109 125 -143 214 -38 99 -39 129 -5 129 14 0 37 -7 50 -16
35 -23 99 -11 171 32 127 76 131 95 39 192 -106 113 -167 146 -245 132z"/>
</g>
</svg>
