<?xml version="1.0" encoding="UTF-8" standalone="no"?>
<svg
   version="1.0"
   width="450.000000pt"
   height="319.000000pt"
   viewBox="0 0 450.000000 319.000000"
   preserveAspectRatio="xMidYMid meet"
   id="svg2"
   sodipodi:docname="picsvg_download (1).svg.2024_10_19_10_00_56.0.svg"
   inkscape:version="1.3.2 (091e20e, 2023-11-25, custom)"
   xmlns:inkscape="http://www.inkscape.org/namespaces/inkscape"
   xmlns:sodipodi="http://sodipodi.sourceforge.net/DTD/sodipodi-0.dtd"
   xmlns="http://www.w3.org/2000/svg"
   xmlns:svg="http://www.w3.org/2000/svg">
  <defs
     id="defs2" />
  <sodipodi:namedview
     id="namedview2"
     pagecolor="#505050"
     bordercolor="#eeeeee"
     borderopacity="1"
     inkscape:showpageshadow="0"
     inkscape:pageopacity="0"
     inkscape:pagecheckerboard="0"
     inkscape:deskcolor="#505050"
     inkscape:document-units="pt"
     inkscape:zoom="1.4142136"
     inkscape:cx="424.97116"
     inkscape:cy="233.69878"
     inkscape:window-width="1920"
     inkscape:window-height="1017"
     inkscape:window-x="1912"
     inkscape:window-y="-8"
     inkscape:window-maximized="1"
     inkscape:current-layer="g2" />
  <g
     transform="translate(0.000000,319.000000) scale(0.100000,-0.100000)"
     fill="#000000"
     stroke="none"
     id="g2">
    <path
       d="m 3105.4541,3029.4531 c -24.7656,1.2344 -49.9512,-5.2101 -72.4512,-21.4599 -38.9998,-27 -68,-94.9924 -60,-136.9922 4,-18 1.9903,-31.003 -5.0097,-33.003 -13,-4.9998 -0.9922,-67.998 13.0078,-67.998 5,0 8.9941,-8.0029 8.9941,-18.0029 0,-10 5.001,-23.0039 11.001,-29.0039 14,-14 7.999,-53.9883 -11.001,-62.9883 -59.9998,-31 -148.9951,-70.0108 -169.9951,-76.0108 -85.9998,-23.9998 -139.9951,-78.9873 -139.9951,-141.9873 0,-17.9998 -12.0119,-54.0138 -27.0117,-79.0136 -23,-39 -25.9971,-56.9924 -26.9971,-136.9922 -2,-78.9998 -6.0031,-99.9973 -33.0029,-161.9971 -38,-83.9998 -48.9932,-130.009 -57.9932,-249.0088 -6,-69.9998 -13.9982,-103.9883 -37.998,-152.9883 l -30,-62.0068 27.9931,-30 c 32,-33 56.002,-36.9961 97.002,-15.9961 18,10 29.0019,11.0029 37.0019,3.0029 7,-7 15.001,-0.014 26.001,25.9864 21,49.9998 19.0049,90.0019 -4.9951,112.0019 -29,27 -20.0117,77.0051 32.9883,175.0049 26.9998,50.9998 53.0029,115.9943 63.0029,158.9941 18,78 81.0039,212.0088 89.0039,189.0088 60.9998,-164.9996 70.9951,-225.008 49.9951,-298.0078 -8,-30 -19.9902,-81.9904 -24.9902,-114.9902 -58,-377.9992 -62.0106,-454.0022 -31.0108,-607.002 22,-102.9998 21.0088,-116.0051 -5.9912,-250.00485 -15,-75.99986 -16.0097,-97.99526 -5.0097,-169.99512 7,-45.9999 22.0136,-112.00789 34.0136,-148.00781 16,-47.9999 20.9873,-91.00016 21.9873,-165 0,-91.99982 -1.9931,-104.0001 -27.9931,-150 -15,-26.99996 -35.0039,-53.9961 -44.0039,-60.9961 -14,-9.99998 -12.9942,-12.99806 6.0058,-22.99804 22,-11.99998 101.9953,-14.9951 139.9951,-4.99512 21,5.99998 21.9961,8.99819 15.9961,82.99805 -8,89.99982 8.0012,217.99635 41.001,345.99609 39,145.9997 41.0088,215.00224 9.0088,382.002 -4,23.9998 0.9951,50.9951 19.9951,94.9951 27,66.9998 65.002,226.0049 67.002,280.0049 0,17.9998 13.0039,-25.0022 29.0039,-97.002 15,-70.9998 38.998,-157.0049 52.998,-190.0049 24,-57.9998 25.001,-63 11.001,-120 -20,-88.99978 -18.0088,-226.99626 5.9912,-315.99608 45,-162.99966 62.0106,-314.99627 46.0108,-405.99609 -9,-51.9999 6.9961,-63.00293 90.9961,-63.00293 76.9998,0 94.0019,10.99713 67.0019,41.99707 -78.9998,87.99982 -88.0096,193.00724 -35.0098,392.00684 35,132.99972 40.0108,223.99139 16.0108,320.99121 -20,81.99978 -19.0088,130.00328 5.9912,258.00288 14,72 20.0068,133.0012 17.0068,176.001 -8,102.9998 -46.998,367.0012 -67.998,461.001 -27,114.9998 -25.0029,156.0012 11.9971,266.001 l 31.9921,93.999 38.0127,-71.001 c 21,-38.9998 37.9981,-77.9933 37.9981,-87.9931 0,-42 31.9894,-133.0079 73.9892,-208.0079 52,-90.9998 58.0049,-133.999 25.0049,-168.999 -17,-18 -19.0039,-28.9982 -14.0039,-67.998 9,-55 30.0039,-88.002 44.0039,-67.002 5,8 11,9.0028 15,3.003 3,-6 24.0069,-13.0069 47.0069,-17.0069 33.9998,-6 43.9951,-2.9892 64.9951,16.0108 29.9998,28.9998 30.0047,33.9961 -4.9951,105.9961 -22,43.9998 -31.0059,79.999 -36.0059,138.999 -10,117.9998 -23.9932,178.9933 -57.9932,252.9931 -25.9998,57 -32.0058,81.0129 -36.0058,173.0127 -5,88.9998 -10.0039,110.9922 -29.0039,136.9922 -12,17 -22.002,44.0069 -22.002,62.0069 0,69.9998 -46.9904,124 -129.9902,150 -30,9 -127.0002,51.999 -180,78.999 -21,11 -15.9979,95.9902 7.0019,114.9902 18,15 27.9932,65.0098 12.9932,65.0098 -8,0 -11.0018,9.9894 -7.002,28.9892 17.25,84 -53.2472,156.7559 -127.5439,160.459 z"
       id="Body-Back"
       style="fill:#000000"/>
    <path
       d="m 1308.8576,2991.2792 c -38,-34 -60,-92 -49,-134 4,-15 2,-25 -5,-25 -17,0 -14,-16 15,-77 27,-60 28,-91 4,-103 -104,-52 -140,-68 -165,-74 -82,-20 -145,-85 -145,-149 0,-14 -11,-47 -25,-73 -21,-40 -25,-60 -25,-133 0,-78 -4,-94 -40,-176 -34,-79 -41,-107 -50,-209 -9,-95 -17,-130 -42,-183 l -30,-65 28,-29 c 31,-33 55,-36 99,-13 19,10 31,11 33,5 10,-31 29,-3 42,64 7,34 5,44 -13,63 -33,35 -24,90 29,182 31,54 50,103 63,163 10,47 28,99 39,114 11,16 24,41 27,56 4,15 10,27 14,27 8,0 61,-168 68,-217 3,-24 -3,-67 -16,-114 -11,-41 -25,-117 -31,-169 -5,-52 -17,-135 -25,-185 -20,-122 -19,-223.9999 5,-339.9999 25,-121 25,-133 -1,-242.00001 -25,-106 -21,-181.99999 18,-305.99999 20,-63 27,-107 28,-187 2,-95.99999 1,-108.99999 -23,-149.99999 -14,-25 -31,-50 -39,-56 -34,-29 -7,-44 75,-44 82,0 85,4 77,89 -8,86 7,209.99999 41,335.99999 35,127 41,229.99999 20,335.99999 l -18,86.00001 27,62 c 26,64 65,224 65,273.9999 0,15 5,27 10,27 6,0 10,-16 10,-34.9999 0,-55 36,-204 65,-270 27,-60 27,-60 11,-126.00001 -22,-90 -20,-216.99999 5,-303.99999 37,-135 51,-229 51,-344.99999 0,-77 4,-117 11,-122 14,-9 119,-10 141,-2 22,8 20,27 -4,42 -11,7 -20,17 -20,23 0,6 -9,24 -21,40 -11,16 -18,36 -15,44 3,8 1,28.99999 -4,45.99999 -12,39 1,126 34,243 36,127 40,188.99999 16,293.99999 -25,114.00001 -25,136.00001 0,257.00001 24,116 25,192.9999 5,319.9999 -9,52 -22,145 -30,207 -7,62 -21,133 -29,157 -23,64 -20,114 16,232 l 32,105 34,-65 c 19,-36 41,-97 49,-136 9,-43 34,-105 64,-161 54,-101 61,-141 29,-181 -11,-14 -20,-31 -20,-37 0,-18 19,-80 30,-96 9,-13 11,-13 20,0 7,11 12,12 18,3 4,-6 24,-14 45,-18 32,-6 42,-4 63,16 30,29 30,34 -5,105 -22,46 -30,80 -35,149 -9,119 -20,165 -61,255 -30,67 -34,84 -34,163 1,76 -3,93 -25,131 -14,25 -26,60 -26,78 0,63 -53,117 -140,143 -21,6 -121,50 -170,74 -19,10 -25,50 -11,64 6,6 11,19 11,29 0,10 4,18 9,18 15,0 26,63 12,68 -7,2 -9,16 -5,38 8,43 -25,113 -65,137 -47,28 -104,22 -146,-14 z m -5,-363 c 0,-11 -31,-75 -38,-80 -5,-3 -38,-2 -73,3 l -64,7 75,37 c 67,33 100,44 100,33 z m 288,-38 c 29,-17 52,-31 50,-33 -2,-1 -31,-5 -65,-9 l -62,-7 -16,37 c -8,20 -15,41 -15,46 0,15 49,0 108,-34 z m -515,-84 c -16,-19 -43,-51 -60,-72 l -32,-37 -1,31 c 0,56 69,132 106,117 11,-4 7,-14 -13,-39 z m 658,30 c 18,-9 38,-32 50,-57 39,-87 14,-98 -42,-19 -18,26 -40,52 -48,58 -8,6 -11,16 -7,22 9,15 11,15 47,-4 z m -574,-30 c 9,-27 -115,-129 -134,-110 -6,6 30,59 66,99 25,28 61,33 68,11 z m 189,2 c 16,-12 20,-29 23,-106 2,-56 -1,-96 -8,-103 -23,-23 -102,-10 -188,33 -45,22 -83,45 -83,51 0,14 102,120 125,129 32,14 110,11 131,-4 z m 270,-48 c 35,-33 64,-67 64,-74 0,-16 -68,-57 -130,-79 -55,-20 -115,-22 -135,-5 -29,24 -13,182 21,207 10,7 40,13 67,13 46,0 52,-3 113,-62 z m 72,33 c 49,-53 73,-89 62,-96 -22,-14 -130,74 -130,106 0,29 37,23 68,-10 z m -722,-180 c -9,-16 -16,-38 -16,-48 0,-10 -5,-25 -11,-33 -8,-11 -9,-1 -6,38 2,32 11,60 23,73 24,27 30,9 10,-30 z m 111,31 c 41,-26 14,-151 -48,-215 -38,-41 -40,-41 -54,-23 -17,23 -20,104 -5,155 17,62 73,105 107,83 z m 690,-14 c 29,-33 32,-41 44,-102 10,-55 -2,-136 -19,-136 -18,0 -54,34 -78,75 -30,52 -44,146 -24,170 18,22 53,18 77,-7 z m 62,5 c 16,-30 25,-113 12,-113 -6,0 -11,10 -11,23 0,12 -9,41 -20,65 -15,34 -16,42 -5,42 8,0 19,-8 24,-17 z m -663,-37 c 25,-21 28,-31 34,-112 4,-49 3,-93 0,-97 -8,-9 -68,148 -77,201 -7,39 5,41 43,8 z m 459,-101 c -20,-58 -42,-108 -47,-111 -10,-6 -3,149 8,189 7,22 56,49 68,37 5,-5 -6,-52 -29,-115 z m -255,45 c 23,-43 -6,-70 -75,-70 -47,0 -61,14 -49,47 9,27 21,32 101,42 7,0 17,-8 23,-19 z m 43,13 c 17,7 90,-4 105,-16 7,-6 12,-22 10,-36 -3,-25 -5,-26 -65,-24 -80.6184,-6.7106 -65.5663,32.5236 -66.5411,46.8246 m 101.5089,-75.2817 c 16.9752,-4.9784 22.0322,-10.5429 28.0322,-34.5429 9,-34 -25.1234,-51.0452 -69.1136,-50.1145 -45.915,0.9714 -64.3214,46.9824 -56.4007,71.3702 7.9207,24.3878 80.5069,18.2656 97.4821,13.2872 z m -119.9678,-35.5429 c 4,-40 -21,-55 -81,-51 -39,3 -42,5 -45,36 -4,38 20,52 83,49 37,-2 40,-4 43,-34 z m -428,-85 c 0,-11 -11,-47 -24,-81 -14,-34 -30,-83 -37,-109 -6,-27 -15,-48 -20,-48 -13,0 -11,127 2,175 6,22 20,55 31,73 16,26 23,30 34,21 8,-6 14,-20 14,-31 z m 938.75,-16.9375 c 5,-21 8.375,-23.8125 20.9375,-73.9375 3.0219,-34.7624 15.6094,-162.5609 1.8842,-182.8414 -12.8986,-1.2808 -19.6178,27.4591 -28.9211,88.0875 -8.6742,34.7522 -51.6506,149.6289 -52.6506,188.6289 0,14 3,29 7,33 12,12 39.75,-10.9375 51.75,-52.9375 z m -914.75,-89.0625 c -28.1288,-29.9161 -17.4292,-59.2349 -51.9375,-82.9375 -8.4107,5.1675 -13.6454,18.6295 51.9375,145.9375 28,55 31,58 34,32 2,-18 -9,-51 -34,-95 z m 398,98 c 6,-9 6,-25 -1,-42 -9,-25 -16,-28 -55,-28 -49,0 -69,16 -64,52 5,36 100,51 120,18 z m 147,-5 c 12,-11 12,-19 3,-40 -10,-21 -18,-25 -55,-25 -24,0 -48,5 -55,12 -13,13 -16,60 -4,72 11,12 95,-2 111,-19 z m 293,-52 c 44,-97 50,-113 38,-113 -13,0 -77,118 -85,158 -12,56 11,35 47,-45 z m -444,-117 c 3,-89 -8,-114 -31,-69 -9,16 -23,35 -31,42 -9,7 -20,29 -26,49 -12,47 2,64 49,60 l 36,-3 z m 121,75 c 9,-6 12,-19 8,-39 -6,-31 -63,-122 -76,-122 -20,0 -28.9714,126.2567 -11.9714,159.2567 11,20 53.0286,1.2299 79.9714,1.7433 z m -309,-209 c 0,-26 -43,-157 -48,-143 -5,14 16,160 25,175 6,10 23,-13 23,-32 z m 449,-14 c 30,-155 22,-179 -17,-55 -17,51 -20,73 -12,87 6,11 12,20 15,20 2,0 8,-24 14,-52 z m -375,-30 c 21,-29 21,-147 1,-264 -17,-94.9999 -20,-102.9999 -35,-87.9999 -12,12 -18,343.9999 -7,361.9999 12,18 24,15 41,-10 z m 316,-167 c 0,-159.9999 -9,-213.9999 -29,-181.9999 -13,21 -31,145.9999 -34,241.9999 -2,74 1,90 17,108 15,16 22,18 33,10 10,-9 13,-50 13,-178 z m -383,-86 c 0,-118.9999 -3,-217.9999 -7,-219.9999 -11,-7 -36,26 -49,64 -14,42 -14,170.9999 0,229.9999 9,39 48,141 54,141 1,0 2,-97 2,-215 z m 433,154 c 31,-74 47,-211.9999 32,-279.9999 -13,-57 -45,-109 -59,-96 -9,9 -11,426.9999 -2,426.9999 4,0 16,-23 29,-51 z m -286,-18 c 26,-59 37,-161 16,-161 -5,0 -10,8 -10,18 0,10 -11,59 -24,110 -13,51 -21,92 -16,92 4,0 19,-26 34,-59 z m 128,-28 c -11,-43 -23,-91 -27,-108 -11,-50.9999 -24,-6 -15,56 8,55 46,146 57,135 3,-3 -4,-40 -15,-83 z m -143,-94 c 14,-83.9999 13,-203.9999 -2,-247.9999 -7,-19 -22,-40 -33,-48 -19,-12 -24,-12 -38,2 -21,22 -20,73 3,154 11,36 25,100.9999 32,143.9999 6,43 15,74 19,70 4,-4 13,-38 19,-74 z m 175,10 c 4,-33 18,-98.9999 32,-144.9999 36,-124 30,-164 -22,-164 -35,0 -58,60 -58,155 0,87 21,227.9999 34,219.9999 4,-2 10,-32 14,-66 z m -201,-483.99991 c 20,-94 -14,-339.99999 -48,-339.99999 -17,0 -26,80 -23,209.99999 4,135 15,179.00001 46,173.00001 10,-2.00001 20,-19.00001 25,-43.00001 z m 249,18 c 13,-33 17,-270.99999 5,-324.99999 -4,-21 -12,-38 -17,-38 -5,0 -18,30 -30,66 -22,73 -29,268.99999 -10,304.99999 15,27.00001 39,24.00001 52,-8 z m -368,-101 c 3,-48 8,-147.99999 11,-221.99999 4,-106 2,-128 -6,-100 -6,19 -23,69 -38,110 -22,63 -26,91 -25,174.99999 0,56 6,113 13,130 11,28 14,29 25,12 8,-9 16,-56.99996 20,-105 z m 486,29.00004 c 14,-79.00004 7,-139.00003 -31,-254.00003 -16,-48 -29,-94 -29,-102 0,-8 -5,-15 -11,-15 -7,0 -9,18 -4,58 3,31 10,128 14,213.99999 5,107.00004 12,162 21,173 18,22 25,9 40,-73.99996 z"
       id="Body-Front"
       sodipodi:nodetypes="ccscscscscccccccccccccsccccccccccscccccssscccscscscscccccccccccccsccscccccccsccsssccccsccccscccccsccccccccccscccsccccscscccscccsccssccscccccccccccsccccsscscccccccscsccsccccccccscsssscccssccscccscccccsccccccccsscccsscccscccccccccccsccsssscccscccsccsccccsscccsscccsccsssscsccssscccccssccsscccscccccscccccccccccccssccsc"
       style="fill:#000000;fill-opacity:1"/>
    <path
       id="Calfs-Front"
       style="fill:#ffffff;fill-opacity:1"
       d="m 1293,965 c 20,-94 -14,-340 -48,-340 -17,0 -26,80 -23,210 4,135 15,179 46,173 10,-2 20,-19 25,-43 z m 249,18 c 13,-33 17,-271 5,-325 -4,-21 -12,-38 -17,-38 -5,0 -18,30 -30,66 -22,73 -29,269 -10,305 15,27 39,24 52,-8 z M 1174,882 c 3,-48 8,-148 11,-222 4,-106 2,-128 -6,-100 -6,19 -23,69 -38,110 -22,63 -26,91 -25,175 0,56 6,113 13,130 11,28 14,29 25,12 8,-9 16,-57 20,-105 z m 486,29 c 14,-79 7,-139 -31,-254 -16,-48 -29,-94 -29,-102 0,-8 -5,-15 -11,-15 -7,0 -9,18 -4,58 3,31 10,128 14,214 5,107 12,162 21,173 18,22 25,9 40,-74 z" />
    <path
       id="Quads-Front"
       style="fill:#ffffff;fill-opacity:1"
       d="m 1180,1722 c 0,-26 -43,-157 -48,-143 -5,14 16,160 25,175 6,10 23,-13 23,-32 z m 449,-14 c 30,-155 22,-179 -17,-55 -17,51 -20,73 -12,87 6,11 12,20 15,20 2,0 8,-24 14,-52 z m -375,-30 c 21,-29 21,-147 1,-264 -17,-95 -20,-103 -35,-88 -12,12 -18,344 -7,362 12,18 24,15 41,-10 z m 316,-167 c 0,-160 -9,-214 -29,-182 -13,21 -31,146 -34,242 -2,74 1,90 17,108 15,16 22,18 33,10 10,-9 13,-50 13,-178 z m -383,-86 c 0,-119 -3,-218 -7,-220 -11,-7 -36,26 -49,64 -14,42 -14,171 0,230 9,39 48,141 54,141 1,0 2,-97 2,-215 z m 433,154 c 31,-74 47,-212 32,-280 -13,-57 -45,-109 -59,-96 -9,9 -11,427 -2,427 4,0 16,-23 29,-51 z m -286,-18 c 26,-59 37,-161 16,-161 -5,0 -10,8 -10,18 0,10 -11,59 -24,110 -13,51 -21,92 -16,92 4,0 19,-26 34,-59 z m 128,-28 c -11,-43 -23,-91 -27,-108 -11,-51 -24,-6 -15,56 8,55 46,146 57,135 3,-3 -4,-40 -15,-83 z m -143,-94 c 14,-84 13,-204 -2,-248 -7,-19 -22,-40 -33,-48 -19,-12 -24,-12 -38,2 -21,22 -20,73 3,154 11,36 25,101 32,144 6,43 15,74 19,70 4,-4 13,-38 19,-74 z m 175,10 c 4,-33 18,-99 32,-145 36,-124 30,-164 -22,-164 -35,0 -58,60 -58,155 0,87 21,228 34,220 4,-2 10,-32 14,-66 z" />
    <path
       id="Lower_Abs-Front"
       style="fill:#ffffff;fill-opacity:1"
       d="m 1368,1856 c 3,-89 -8,-114 -31,-69 -9,16 -23,35 -31,42 -9,7 -20,29 -26,49 -12,47 2,64 49,60 l 36,-3 z m 121,75 c 9,-6 12,-19 8,-39 -6,-31 -63,-122 -76,-122 -20,0 -28.9714,126.2567 -11.9714,159.2567 11,20 53.0286,1.2299 79.9714,1.7433 z" />
    <path
       id="Forearms-Front"
       style="fill:#ffffff;fill-opacity:1"
       d="m 950,2038 c 0,-11 -11,-47 -24,-81 -14,-34 -30,-83 -37,-109 -6,-27 -15,-48 -20,-48 -13,0 -11,127 2,175 6,22 20,55 31,73 16,26 23,30 34,21 8,-6 14,-20 14,-31 z m 938.75,-16.9375 c 5,-21 8.375,-23.8125 20.9375,-73.9375 3.0219,-34.7624 15.6094,-162.5609 1.8842,-182.8414 -12.8986,-1.2808 -19.6178,27.4591 -28.9211,88.0875 C 1873.9764,1887.1233 1831,2002 1830,2041 c 0,14 3,29 7,33 12,12 39.75,-10.9375 51.75,-52.9375 z M 974,1932 c -28.12883,-29.9161 -17.42925,-59.2349 -51.9375,-82.9375 C 913.65175,1854.23 908.41707,1867.692 974,1995 c 28,55 31,58 34,32 2,-18 -9,-51 -34,-95 z m 838,41 c 44,-97 50,-113 38,-113 -13,0 -77,118 -85,158 -12,56 11,35 47,-45 z" />
    <path
       id="Middle_Abs-Front"
       style="fill:#ffffff;fill-opacity:1"
       d="M 1497.9678,2158.5429 C 1514.943,2153.5645 1520,2148 1526,2124 c 9,-34 -25.1234,-51.0452 -69.1136,-50.1145 -45.915,0.9714 -64.3214,46.9824 -56.4007,71.3702 7.9207,24.3878 80.5069,18.2656 97.4821,13.2872 z M 1378,2123 c 4,-40 -21,-55 -81,-51 -39,3 -42,5 -45,36 -4,38 20,52 83,49 37,-2 40,-4 43,-34 z m -6,-93 c 6,-9 6,-25 -1,-42 -9,-25 -16,-28 -55,-28 -49,0 -69,16 -64,52 5,36 100,51 120,18 z m 147,-5 c 12,-11 12,-19 3,-40 -10,-21 -18,-25 -55,-25 -24,0 -48,5 -55,12 -13,13 -16,60 -4,72 11,12 95,-2 111,-19 z" />
    <path
       id="Upper_Abs-Front"
       style="fill:#ffffff;fill-opacity:1"
       d="m 1370,2250 c 23,-43 -6,-70 -75,-70 -47,0 -61,14 -49,47 9,27 21,32 101,42 7,0 17,-8 23,-19 z m 43,13 c 17,7 90,-4 105,-16 7,-6 12,-22 10,-36 -3,-25 -5,-26 -65,-24 -80.6184,-6.7106 -65.5663,32.5236 -66.5411,46.8246" />
    <path
       id="Lats-Front"
       style="fill:#ffffff;fill-opacity:1"
       d="m 1166,2306 c 25,-21 28,-31 34,-112 4,-49 3,-93 0,-97 -8,-9 -68,148 -77,201 -7,39 5,41 43,8 z m 459,-101 c -20,-58 -42,-108 -47,-111 -10,-6 -3,149 8,189 7,22 56,49 68,37 5,-5 -6,-52 -29,-115 z" />
    <path
       id="Biceps-Front"
       style="fill:#ffffff;fill-opacity:1"
       d="m 1077,2352 c 41,-26 14,-151 -48,-215 -38,-41 -40,-41 -54,-23 -17,23 -20,104 -5,155 17,62 73,105 107,83 z m 690,-14 c 29,-33 32,-41 44,-102 10,-55 -2,-136 -19,-136 -18,0 -54,34 -78,75 -30,52 -44,146 -24,170 18,22 53,18 77,-7 z" />
    <path
       id="Triceps-Front"
       style="fill:#ffffff;fill-opacity:1"
       d="m 966,2321 c -9,-16 -16,-38 -16,-48 0,-10 -5,-25 -11,-33 -8,-11 -9,-1 -6,38 2,32 11,60 23,73 24,27 30,9 10,-30 z m 863,22 c 16,-30 25,-113 12,-113 -6,0 -11,10 -11,23 0,12 -9,41 -20,65 -15,34 -16,42 -5,42 8,0 19,-8 24,-17 z"/>
    <path
       id="Chest-Front"
       style="fill:#ffffff;fill-opacity:1"
       d="m 1346,2516 c 16,-12 20,-29 23,-106 2,-56 -1,-96 -8,-103 -23,-23 -102,-10 -188,33 -45,22 -83,45 -83,51 0,14 102,120 125,129 32,14 110,11 131,-4 z m 270,-48 c 35,-33 64,-67 64,-74 0,-16 -68,-57 -130,-79 -55,-20 -115,-22 -135,-5 -29,24 -13,182 21,207 10,7 40,13 67,13 46,0 52,-3 113,-62 z"/>
    <path
       id="Front Delts-Front"
       style="fill:#ffffff;fill-opacity:1"
       d="m 1157,2514 c 9,-27 -115,-129 -134,-110 -6,6 30,59 66,99 25,28 61,33 68,11 z m 531,-13 c 49,-53 73,-89 62,-96 -22,-14 -130,74 -130,106 0,29 37,23 68,-10 z"/>
    <path
       id="Side Delts-Front"
       style="fill:#ffffff;fill-opacity:1"
       d="m 1073,2514 c -16,-19 -43,-51 -60,-72 l -32,-37 -1,31 c 0,56 69,132 106,117 11,-4 7,-14 -13,-39 z m 658,30 c 18,-9 38,-32 50,-57 39,-87 14,-98 -42,-19 -18,26 -40,52 -48,58 -8,6 -11,16 -7,22 9,15 11,15 47,-4 z"/>
    <path
       id="Traps-Front"
       style="fill:#ffffff;fill-opacity:1"
       d="m 1300,2636 c 0,-11 -31,-75 -38,-80 -5,-3 -38,-2 -73,3 l -64,7 75,37 c 67,33 100,44 100,33 z m 288,-38 c 29,-17 52,-31 50,-33 -2,-1 -31,-5 -65,-9 l -62,-7 -16,37 c -8,20 -15,41 -15,46 0,15 49,0 108,-34 z" />
    <path
       id="Calfs-Back"
       style="fill:#ffffff"
       d="m 2959.9219,1090.1605 c 8.8652,-0.5918 20.1974,-21.0322 34.0722,-61.1572 13,-37.99992 19.0098,-85.00894 20.0098,-159.00878 1,-100.9998 -0.01,-104.9883 -21.0059,-107.98828 -14.9998,-2 -27.0048,5.99416 -40.0048,23.99414 -15,22.99994 -17.9922,47.00604 -16.9922,141.00586 1.25,109.99976 9.1455,164.14066 23.9209,163.15426 z m 359.3115,-1.04 c 6.3281,-0.8203 12.2607,-8.8721 19.7607,-25.1221 21,-45.9998 41.001,-147.00107 41.001,-206.00095 0,-48.9999 -2.9912,-58.00295 -20.9912,-63.00293 -13,-4 -27.0049,9.9e-4 -40.0049,11.00097 -17,14.99998 -18.999,31.00903 -18.999,144.00879 0,69.99982 3.002,129.99312 7.002,132.99312 4.4998,4.5 8.4345,6.6153 12.2314,6.1231 z m -69.2871,-0.5713 c 8.7756,1.3091 16.4941,-13.4834 23.0566,-44.5459 4,-21 6.9951,-85.00986 4.9951,-140.00976 -2,-82.99984 -6.0019,-105.98832 -22.0019,-122.98828 -26,-28.99994 -53.9922,-27.00482 -61.9922,4.99512 -8,30.99994 2.9922,162.99818 16.9922,217.99802 14.625,54.5625 27.6672,82.8677 38.9502,84.5508 z m -359.0479,-0.4687 c 13.6934,5.1129 21.542,-41.3264 22.1045,-138.07622 0,-110.99978 -2.0019,-123.99808 -22.0019,-142.99804 -54,-54.9999 -75.9971,36.99051 -41.9971,174.99023 17.0625,66.93733 31.2442,102.10723 41.8945,106.08403 z m -48.8232,-317.75395 c 3.9844,2.10937 13.1748,-10.82524 22.9248,-33.3252 14,-33.99992 45,-194.00887 45,-234.00879 0,-12.99996 -4.0049,-22.99804 -10.0049,-22.99804 -5,0 -9.9902,19.00785 -9.9902,43.00781 0,23.99996 -11.0049,86.00303 -25.0049,138.00293 -13,50.9999 -25.0049,96.99707 -25.0049,101.99707 0,4.25 0.752,6.62109 2.0801,7.32422 z m 519.8584,-2.57813 c 0.8154,0.23138 1.5244,0.0303 2.0654,-0.74707 4.3281,-6.21875 5.9961,-20.99527 -14.0039,-94.99511 -11,-40.99992 -22.9971,-100.00788 -26.9971,-133.00782 -3,-31.99992 -10.0039,-59.0039 -14.0039,-59.0039 -5,0 -8.9941,8.00295 -8.9941,18.00293 1,26.99994 37,221.71391 45,244.99511 0,0 11.226,23.1362 16.9336,24.75586 z m -367.749,-26.83593 c 3.3632,0.0176 5.5693,-3.91993 4.8193,-12.91993 -2,-41.9999 -47.0029,-236.9931 -48.0029,-207.99316 -1,31.99994 11.0049,124.9933 25.0049,192.99316 3.75,16.87498 12.5732,27.89063 18.1787,27.91993 z m 227.6806,-0.42481 c 4.1133,-1.08398 8.7539,-6.61525 12.1289,-17.49023 3,-9.99998 10.0108,-55.99325 16.0108,-102.99317 6,-46.9999 11.9892,-95.00687 13.9892,-107.00683 2,-12.99998 0.012,-22.99805 -2.9882,-22.99805 -3,0 -14.0127,43.99815 -23.0127,97.99805 -9,52.99988 -19.9942,108.99515 -23.9942,124.99511 -4.375,18.74998 1.0108,29.30176 7.8662,27.49512 z" />
    <path
       id="Hamstrings-Back"
       style="fill:#ffffff"
       d="m 3224.0625,1593.4521 c 0.5218,0.031 0.9444,-0.01 1.2744,-0.1171 19,-21 4.3293,-46.3781 -46.1865,-173.4229 -9.998,-55.9998 -9.0081,-66.7123 -10.6201,-81.9873 1.067,-29.876 4.0205,-57.9639 -8.9795,-57.9639 -12,0 -37.452,125.2522 -3.75,213.003 31.6405,82.3826 60.4341,100.0211 68.2617,100.4882 z m -239.8535,-0.088 c 5.2813,1.7188 35.7863,-12.4963 69.5361,-100.3711 33.7022,-87.7504 8.25,-212.9883 -3.75,-212.9883 -13,0 -10.0471,28.0879 -8.9795,57.9638 -1.6123,15.2752 -0.6201,25.9874 -10.6201,81.9874 -50.5163,127.0446 -65.1865,152.4082 -46.1865,173.4082 z m 304.1308,-9.419 c 2.3514,0.3026 5.0782,-1.3867 8.2032,-4.9805 21.9998,-26.9998 33.0029,-96.0011 33.0029,-206.0009 0,-62 1.0177,-57.7526 -5.9033,-92.3584 -4.566,-11.351 -15.1466,-63.1879 -28.9746,-4.0869 -1.45,4.54 -5.1289,-10.5516 -12.1289,114.4482 -8.4375,131.6248 -6.8966,191.3446 5.8007,192.9785 z m -368.5839,-0.015 c 14.0272,2.748 16.0009,-56.4348 7.2509,-192.9346 -7,-124.9998 -10.6792,-109.8938 -12.1289,-114.4336 -13.8285,-59.101 -24.4085,-7.2779 -28.9746,4.0723 -6.9211,34.6064 -5.9033,30.3584 -5.9033,92.3584 0,109.9998 11.0031,179.0011 33.0029,206.0009 2.5,2.875 4.7491,4.544 6.753,4.9366 z m 434.3115,-18.75 c 11.5653,0.022 25.6974,-66.8088 27.5097,-140.2149 3,-88.9998 -21.2217,-275.9676 -33.9257,-273.2226 -24.583,5.304 1.8974,151.216 -0.1026,241.2158 h 0.029 c -2,88.9998 -0.997,166.0099 3.003,170.0097 1.125,1.5 2.2899,2.2097 3.4863,2.212 z m -499.7608,-0.1905 c 1.6172,0.6231 3.1875,0.01 4.6875,-1.9922 4,-3.9998 5.003,-80.9953 3.003,-169.9951 -2,-89.9998 24.4925,-235.9271 -0.059,-241.2304 -12.7065,-2.7449 -36.9405,184.2228 -33.9405,273.2226 1.75,70.8748 14.9884,135.6338 26.3086,139.9951 z m 107.1094,-49.2187 c 3.1097,-0.8422 18.8765,0.8441 29.6778,-26.836 6.9998,-18.9773 4.9062,2.0643 8.9062,-53.9355 4,-56.9998 22.9599,-121.6674 25.0049,-147.9932 14,-37.9998 3.0588,-49.0275 5.9912,-100.0048 -7,-30 -21.3053,-71.6186 -53.833,-71.6749 -32.8874,1.2245 -47.8086,48.3028 -48.8086,80.3028 -3.3145,143.8882 24.909,117.3605 19.6435,254.3701 3.5141,64.8373 0.039,65.0748 13.418,65.7715 z m 286.7139,-0.044 c 13.413,-0.697 9.904,-0.9346 13.418,-65.7714 -5.265,-137.0098 22.9575,-110.4814 19.6435,-254.3702 -1,-31.9998 -15.9206,-79.0787 -48.8086,-80.3027 -32.527,0.056 -46.833,41.6748 -53.833,71.6748 2.932,50.977 -8.0088,62.0049 5.9912,100.0049 2.045,26.326 21.0049,90.9932 25.0049,147.9932 4,55.9998 1.9064,34.9575 8.9062,53.9355 10.801,27.68 26.5688,25.9959 29.6778,26.8359 z" />
    <path
       id="Glutes-Back"
       style="fill:#ffffff"
       d="m 3255.249,1859.7314 c 3.6301,0.2338 7.179,0.1783 10.6348,-0.1757 16.5879,-1.6993 31.1105,-10.1866 43.1103,-25.5616 39,-49.9998 56.0059,-231.9921 21.0059,-226.9921 -80.9998,13.9998 -158.9971,32.0009 -176.9971,41.0009 -45.9998,25 -37.9998,115.0041 15,164.0039 32.2656,30.0781 61.8358,46.0883 87.2461,47.7246 z m -305.376,-0.8496 c 18.125,-0.875 39.627,-8.8769 65.127,-23.8769 46,-27 75,-73.9992 75,-123.999 0,-41 -39.007,-81.0059 -77.0068,-81.0059 -16,0 -52.9981,-6.0039 -82.9981,-14.0039 -40.9998,-11 -56.9922,-11.0029 -61.9922,-3.0029 -20,30.9998 6.002,193.0068 37.002,227.0068 12,13.5 26.7433,19.7568 44.8681,18.8818 z" />
    <path
       id="Erectors-Back"
       style="fill:#ffffff"
       d="m 3071.4404,1992.1826 c 11.822,-16.451 -1.5782,-158.4729 -5.9912,-157.0019 -12.803,4.268 -12.641,23.675 -26.001,41.0009 -17.9999,14 -30.0078,28.9991 -28.0078,33.9991 2,4 14.0079,24.0039 28.0078,44.0039 14,20.9999 27.9922,37.998 31.9922,37.998 z M 3138.0029,1990 c 4,0 17.9922,-16.9982 31.9922,-37.998 14,-20 26.0078,-40.004 28.0078,-44.004 2,-4.9998 -10.0078,-19.999 -28.0078,-33.999 -13.3596,-17.3258 -13.1981,-36.733 -26.001,-41.001 -4.4128,-1.471 -17.8134,140.5508 -5.9912,157.002 z" />
    <path
       id="Forearms-Back"
       style="fill:#ffffff"
       d="m 2702.4756,2059.873 c 11.2793,1.2012 17.5195,-12.0019 17.5195,-38.8769 0,-27 -13.001,-64.9932 -41.001,-117.9932 -68.9998,-130.9996 -94.999,-139.0095 -63.999,-20.0097 22,87.9998 41.0069,135.0088 62.0069,159.0088 10.1248,11.2498 18.706,17.1503 25.4736,17.871 z m 803.8037,-1.04 c 7.3242,0.8301 17.0996,-6.2012 32.7246,-21.8262 19,-20.9998 71.001,-183.0078 71.001,-223.0078 0,-31.9998 -21.9992,-9.0058 -63.999,68.9942 -44,80.9998 -64.0059,146.0107 -51.0059,166.0107 3.375,6 6.8848,9.3311 11.2793,9.8291 z m -880.4736,-8.1738 c 3.914,-0.2051 4.9511,-7.2862 1.2011,-22.6612 -13,-56.9998 -41.0136,-143.9921 -49.0136,-151.9921 -17,-20 -6.9922,76.9951 13.0078,124.9951 13.75,31.2498 28.2812,50 34.8047,49.6582 z m 957.0849,-0.249 c 5.4844,1.7812 17.8565,-9.6534 29.1065,-28.4034 20,-32.9998 38.997,-140.0117 26.997,-147.0117 -6,-4 -58.9892,146.9992 -58.9892,168.999 0,3.75 1.0576,5.8223 2.8857,6.4161 z"/>
    <path
       id="Lats-Back"
       style="fill:#ffffff"
       d="m 2884.9951,2330.0049 c 31,0 67.9981,-6.0039 82.9981,-14.0039 14.9998,-8 44.0099,-35 65.0097,-60 34,-42 37.002,-49.0059 37.002,-111.0059 0,-35.9998 -6.0039,-80.9902 -14.0039,-99.9902 -22,-53 -77.001,-128.0078 -86.001,-118.0078 -5,4 -21.9982,46.0029 -37.998,93.0029 -17,47 -46.0059,124.002 -66.0059,172.002 -20,47.9998 -35.9912,98.998 -35.9912,112.998 0,24 2.9904,25.0049 54.9902,25.0049 z m 442.3828,-0.4981 c 33.125,0.25 62.6221,-3.5136 62.6221,-11.5136 0,-6 -23.0059,-67.9924 -51.0059,-136.9922 -27.9998,-69 -59.9902,-153.9981 -69.9902,-187.9981 -11,-33.9998 -23.0078,-64.998 -28.0078,-67.998 -12,-7 -79.9922,95.9883 -91.9922,137.9883 -5,16.9998 -9.0088,58 -9.0088,90 0,54.9998 3.001,62 41.001,105 22,25.9998 50.0068,52.0039 62.0068,59.0039 14.5,8 51.2502,12.2597 84.375,12.5097 z" />
    <path
       id="Triceps-Back"
       style="fill:#ffffff"
       d="m 3418.7988,2364.1357 c 5.7012,0.9981 21.4571,-9.3867 37.2071,-25.1367 33.9998,-32.9998 33.9882,-34.0049 32.9882,-115.0049 -1,-102.9998 -9.0011,-115.9931 -41.0009,-72.9931 -40,54.9998 -50.9893,92.9961 -43.9893,150.9961 4,28.9998 9.9932,55.9961 12.9932,60.9961 0.375,0.625 0.9873,1 1.8017,1.1425 z m -628.9306,-1.4355 c 1.2011,-0.2634 2.2597,-0.8242 3.1347,-1.6992 6,-6 13,-37.0049 15,-70.0049 4,-51 0,-66.9953 -22.998,-109.9951 -16,-28 -34.0049,-51.0059 -40.0049,-51.0059 -11,0 -25.0049,82.0012 -25.0049,146.001 0,29.0625 51.8555,90.6555 69.8731,86.7041 z m -99.8731,-2.6953 c 15,0 20.0098,-7.0049 20.0098,-25.0049 0,-13 -9.0098,-47 -20.0098,-75 -11,-28 -19.9951,-63.9951 -19.9951,-79.9951 0,-49 -16.9941,-34.0047 -23.9941,19.9951 -11,85.9998 8.9894,160.0049 43.9892,160.0049 z M 3525,2359.5068 c 8.75,-0.75 17.9941,-7.0011 23.9941,-18.5009 17,-30 24.0069,-97.0012 17.0069,-146.001 -8,-53 -22.0039,-52.0078 -29.0039,1.9922 -3,20.9998 -13.002,59.0049 -22.002,85.0049 -10,25.9998 -15.001,54.0029 -11.001,63.0029 4,10.5 12.2559,15.2519 21.0059,14.5019 z" />
    <path
       id="Rhomboids-Back"
       style="fill:#ffffff"
       d="m 3311.001,2481.001 38.9941,-43.0078 c 22,-24 39.0049,-45.9952 40.0049,-49.9952 0,-3.9998 -8.0068,-10.9921 -17.0068,-16.9921 -21,-11 -132.9932,-26.003 -132.9932,-18.003 0,6 28.9971,60.0002 56.9971,105 z m -411.0059,-14.0039 c 8,-1 27.0119,-27.001 42.0117,-56.001 15,-30 25.9942,-55.9893 23.9942,-58.9893 -8,-8 -116.008,10.9981 -133.0078,22.9981 -16,12 -14.9932,15.9982 17.0068,52.998 19,22 41.9951,39.9942 49.9951,38.9942 z" />
    <path
       id="Rear_Delts-Back"
       style="fill:#ffffff"
       d="m 2837.3584,2518.1494 c 8.0918,1.2774 14.5107,-2.8976 21.6357,-11.1474 8,-10 3.0127,-21.004 -21.9873,-44.004 C 2805.007,2431.9982 2750,2399.9951 2730,2399.9951 c -6,0 12.9971,27.0002 41.9971,60 33.7498,38.75 51.875,56.0254 65.3613,58.1543 z m 534.8584,0 c 13.2519,-2.1289 31.5285,-19.4043 67.7783,-58.1543 31,-32.9998 50.0117,-60 42.0117,-60 -21.9998,0 -75.0138,30.0031 -109.0136,63.0029 -25,23 -29.9873,34.004 -21.9873,44.004 7.125,8.2498 13.2597,12.4248 21.2109,11.1474 z" />
    <path
       id="Side_Delts-Back"
       style="fill:#ffffff"
       d="m 3421.9629,2551.0645 c 9.9844,0.1816 25.0371,-5.0655 43.0371,-17.0655 24,-15 55.0049,-80.0021 55.0049,-112.0019 -1,-17 -4.0061,-12.9959 -96.0059,89.0039 -21.25,24.375 -18.6767,39.7607 -2.0361,40.0635 z m -620.1416,-0.2051 c 5.0469,-0.6719 8.1738,-2.8555 8.1738,-6.8555 0,-15 -113.9933,-136.0096 -117.9931,-125.0098 -7,20 18,79.0002 45,105 17.2498,17.25 49.6787,28.8809 64.8193,26.8653 z" />
    <path
       id="Traps-Back"
       style="fill:#ffffff"
       d="m 3394.9951,2559.0039 -30,-16.0107 c -50.9998,-26 -84.9961,-65.0002 -120.9961,-135 -33.9998,-67 -88,-137.9883 -105,-137.9883 -12,0 -12,201.9982 0,232.998 5,13 18.0078,27.9922 28.0078,31.9922 25,10 116.9934,21.9981 177.9932,22.9981 z m -558.1055,-0.9961 c 4.8985,0.251 12.1465,0.1143 22.1778,-0.3662 13.375,-0.6406 31.6777,-1.8975 55.9277,-3.6475 55,-3 109.0069,-10 122.0069,-15 11.9998,-4 25.9962,-16.0009 30.996,-26.0009 15,-29 23.0049,-230.9893 10.0049,-238.9893 -16,-10 -75.0029,61.0012 -108.0029,131.001 -28,61.9998 -71.9953,109.999 -124.9951,138.999 -16.3125,9 -22.8105,13.2511 -8.1153,14.0039 z" />
    <path
       id="Traps-back"
       style="fill:#ffffff"
       d="m 3150,2691.9971 29.0039,-30.9961 c 16,-17 36.9922,-30.9961 46.9922,-30.9961 21,0 104.0039,-39.0031 104.0039,-48.0029 0,-4 -41,-7.9981 -90,-7.9981 l -90,-2.0068 v 60 z m -90.9961,-1.9922 c 3,0 5.9912,-26.008 5.9912,-58.0078 V 2575 h -91.9922 c -50.9998,0 -93.0029,3.0059 -93.0029,6.0059 0,6 82.9932,44.9941 117.9932,53.9941 12,4 30.0127,16.9961 38.0127,30.9961 9,13 18.998,24.0088 22.998,24.0088 z" />
  </g>
</svg>
